<svg width="255" height="200" viewBox="0 0 255 200" fill="none" xmlns="http://www.w3.org/2000/svg">
<g clip-path="url(#clip0_1912_4845)">
<rect width="255" height="200" rx="15" fill="#88D3EB"/>
<g clip-path="url(#clip1_1912_4845)">
<path d="M229.169 210.974C229.169 189.112 211.448 171.389 189.589 171.389C167.729 171.389 150.008 189.112 150.008 210.974L150.008 288.533C150.008 310.395 167.729 328.118 189.589 328.118C211.448 328.118 229.169 310.395 229.169 288.533L229.169 210.974Z" fill="#0075FF"/>
<path d="M229.161 54.576C229.161 32.7141 211.44 14.9915 189.58 14.9915C167.721 14.9915 150 32.7141 150 54.576L150 132.135C150 153.997 167.721 171.72 189.58 171.72C211.44 171.72 229.161 153.997 229.161 132.135L229.161 54.576Z" fill="#0075FF"/>
<path d="M266 171.601L266 215.786L227.729 193.69L189.457 171.601L227.729 149.504L266 127.407L266 171.601Z" fill="#0075FF"/>
</g>
</g>
<defs>
<clipPath id="clip0_1912_4845">
<rect width="255" height="200" rx="15" fill="white"/>
</clipPath>
<clipPath id="clip1_1912_4845">
<rect width="313.126" height="116" fill="white" transform="translate(150 328.126) rotate(-90)"/>
</clipPath>
</defs>
</svg>
