<svg width="255" height="200" viewBox="0 0 255 200" fill="none" xmlns="http://www.w3.org/2000/svg">
<g clip-path="url(#clip0_1912_4908)">
<rect width="255" height="200" rx="15" fill="#E4404A"/>
<g clip-path="url(#clip1_1912_4908)">
<path d="M178.396 85.5462C162.031 101.96 162.031 128.571 178.396 144.985C194.761 161.398 221.294 161.398 237.658 144.985L295.726 86.7444C312.091 70.3309 312.091 43.7195 295.726 27.306C279.361 10.8925 252.829 10.8925 236.464 27.306L178.396 85.5462Z" fill="#0FC45E"/>
<path d="M179.542 27.3062C163.177 10.8927 136.645 10.8927 120.28 27.3062C103.915 43.7196 103.915 70.3311 120.28 86.7446L178.348 144.985C194.713 161.398 221.245 161.398 237.61 144.985C253.975 128.571 253.975 101.96 237.61 85.5464L179.542 27.3062Z" fill="#0FC45E"/>
<path d="M178.396 180.859C162.031 197.272 162.031 223.884 178.396 240.297C194.761 256.711 221.293 256.711 237.658 240.297L295.726 182.057C312.091 165.644 312.091 139.032 295.726 122.619C279.361 106.205 252.828 106.205 236.463 122.619L178.396 180.859Z" fill="#0FC45E"/>
<path d="M179.542 122.625C163.177 106.212 136.644 106.212 120.28 122.625C103.915 139.039 103.915 165.65 120.28 182.064L178.347 240.304C194.712 256.717 221.245 256.717 237.61 240.304C253.975 223.89 253.975 197.279 237.61 180.866L179.542 122.625Z" fill="#0FC45E"/>
</g>
</g>
<defs>
<clipPath id="clip0_1912_4908">
<rect width="255" height="200" rx="15" fill="white"/>
</clipPath>
<clipPath id="clip1_1912_4908">
<rect width="200" height="237.611" fill="white" transform="translate(108 15)"/>
</clipPath>
</defs>
</svg>
