<svg width="255" height="200" viewBox="0 0 255 200" fill="none" xmlns="http://www.w3.org/2000/svg">
<g clip-path="url(#clip0_1912_4898)">
<rect width="255" height="200" rx="15" fill="#FB4738"/>
<g clip-path="url(#clip1_1912_4898)">
<path d="M72.6297 137.613C72.6163 160.464 91.1295 178.977 113.98 178.964C136.831 178.95 155.366 160.415 155.379 137.565L155.427 56.483C155.44 33.6323 136.927 15.1191 114.076 15.1325C91.2257 15.1459 72.6907 33.6809 72.6773 56.5316L72.6297 137.613Z" fill="#9BEA77"/>
<path d="M32.9148 96.2986C10.0641 96.312 -8.47095 114.847 -8.48437 137.698C-8.49779 160.548 10.0155 179.062 32.8662 179.048L113.948 179.001C136.798 178.987 155.333 160.452 155.347 137.601C155.36 114.751 136.847 96.2375 113.996 96.2509L32.9148 96.2986Z" fill="#9BEA77"/>
<path d="M-8.74434 218.989C-8.75776 241.84 9.7555 260.353 32.6062 260.34C55.4569 260.327 73.9919 241.792 74.0053 218.941L74.0529 137.859C74.0663 115.009 55.5531 96.4953 32.7024 96.5087C9.8517 96.5221 -8.68332 115.057 -8.69673 137.908L-8.74434 218.989Z" fill="#9BEA77"/>
<path d="M-48.4563 177.677C-71.307 177.691 -89.842 196.226 -89.8555 219.077C-89.8689 241.927 -71.3556 260.441 -48.5049 260.427L32.5767 260.38C55.4274 260.366 73.9624 241.831 73.9758 218.98C73.9892 196.13 55.476 177.616 32.6253 177.63L-48.4563 177.677Z" fill="#9BEA77"/>
</g>
</g>
<defs>
<clipPath id="clip0_1912_4898">
<rect width="255" height="200" rx="15" fill="white"/>
</clipPath>
<clipPath id="clip1_1912_4898">
<rect width="140" height="312.667" fill="white" transform="translate(-8.00513 318.084) rotate(-135)"/>
</clipPath>
</defs>
</svg>
