<svg width="255" height="200" viewBox="0 0 255 200" fill="none" xmlns="http://www.w3.org/2000/svg">
<g clip-path="url(#clip0_1912_4866)">
<rect width="255" height="200" rx="15" fill="#7DBCD7"/>
<g clip-path="url(#clip1_1912_4866)">
<path d="M-14.3387 242.949C7.0133 248.67 37.734 203.256 54.2779 141.513C70.8217 79.7707 66.9239 25.0805 45.5719 19.3593C24.2199 13.638 -6.50081 59.0522 -23.0447 120.795C-39.5885 182.537 -35.6908 237.228 -14.3387 242.949Z" fill="#D1C5AE"/>
<path d="M58.249 262.399C79.601 268.12 110.322 222.706 126.866 160.963C143.409 99.2205 139.512 44.5302 118.16 38.809C96.8076 33.0877 66.0869 78.5019 49.543 140.244C32.9992 201.987 36.8969 256.677 58.249 262.399Z" fill="#D1C5AE"/>
</g>
</g>
<defs>
<clipPath id="clip0_1912_4866">
<rect width="255" height="200" rx="15" fill="white"/>
</clipPath>
<clipPath id="clip1_1912_4866">
<rect width="155.199" height="231.477" fill="white" transform="translate(6.91064 9) rotate(15)"/>
</clipPath>
</defs>
</svg>
