<svg width="255" height="200" viewBox="0 0 255 200" fill="none" xmlns="http://www.w3.org/2000/svg">
<g clip-path="url(#clip0_1912_4859)">
<rect width="255" height="200" rx="15" fill="#FFBCCE"/>
<g clip-path="url(#clip1_1912_4859)">
<path d="M-11.971 202.108L-72.0265 160.057L-5.57032 129.05L60.8982 98.0404L54.4852 171.101L48.0846 244.16L-11.971 202.108Z" fill="#FE8709"/>
<path d="M97.1568 201.719C119.793 217.569 150.998 212.059 166.855 189.413C182.712 166.766 177.217 135.559 154.581 119.709L8.49532 17.4187C-14.1408 1.5687 -45.3458 7.07824 -61.203 29.7246C-77.0601 52.371 -71.5647 83.5785 -48.9285 99.4285L97.1568 201.719Z" fill="#FE8709"/>
<path d="M56.0751 104.231C78.6027 120.005 109.658 114.522 125.439 91.9839C141.22 69.4461 135.751 38.3884 113.223 22.6145C90.6959 6.84053 59.6407 12.3236 43.8596 34.8614C28.0785 57.3991 33.5476 88.4568 56.0751 104.231Z" fill="#FE8709"/>
</g>
</g>
<defs>
<clipPath id="clip0_1912_4859">
<rect width="255" height="200" rx="15" fill="white"/>
</clipPath>
<clipPath id="clip1_1912_4859">
<rect width="278.408" height="218.841" fill="white" transform="translate(-0.477783 -57) rotate(35)"/>
</clipPath>
</defs>
</svg>
