<svg width="1101" height="571" viewBox="0 0 1101 571" fill="none" xmlns="http://www.w3.org/2000/svg">
<path d="M476.809 571C420.595 571 366.664 542.885 334.991 493.933C306.17 512.201 283.342 527.9 268.79 538.461C193.315 593.549 87.5933 576.994 32.521 501.497C-22.5512 426 -6.00103 320.247 69.4737 265.159C79.7462 257.737 323.577 81.0543 576.681 6.84168C647.305 -13.8522 723.35 13.5494 764.44 74.7747L765.154 75.7738C765.154 75.7738 765.724 76.6301 766.01 77.0582C794.83 58.7905 817.658 43.0917 832.21 32.5307C907.685 -22.5579 1013.41 -6.0028 1068.48 69.4942C1123.55 144.991 1107 250.744 1031.53 305.833C1021.25 313.254 777.423 489.937 524.319 564.15C508.625 568.717 492.646 571 476.809 571Z" fill="#FF9900" fill-opacity="0.15"/>
</svg>
