<svg width="70" height="36" viewBox="0 0 70 36" fill="none" xmlns="http://www.w3.org/2000/svg">
<path d="M24.2897 5.04011C21.8361 12.2479 16.9509 26.5102 13.9203 35.3722C9.66653 36.7496 4.82745 35.3334 2.04233 31.5255C1.93428 31.3797 1.83462 31.2328 1.74231 31.087L16.5585 9.00117C18.9198 7.67837 21.5277 6.3241 24.2897 5.03906V5.04011Z" fill="#C5EF68"/>
<path d="M41.9057 0.340496L35.2896 20.3493L25.5275 34.9117H25.5202C23.7432 34.0882 22.1812 32.7727 21.0661 31.0419C19.2503 32.1958 17.8121 33.1808 16.8963 33.8501C15.9658 34.5267 14.9577 35.0344 13.9192 35.3732C16.9498 26.5112 21.835 12.2489 24.2886 5.04111C28.0735 3.27143 32.1426 1.64127 36.2589 0.432809C38.144 -0.121068 40.0899 -0.128411 41.9057 0.340496Z" fill="#FBE338"/>
<path d="M48.2984 4.75597L38.6056 33.5502C36.752 34.2583 34.8669 34.9045 32.9745 35.4584C32.0356 35.7353 31.0894 35.8738 30.1516 35.8811L35.2907 20.3495L46.8141 3.16357C47.2756 3.62514 47.691 4.1402 48.0676 4.69408L48.1138 4.76331C48.1295 4.78639 48.1526 4.81681 48.1673 4.83989C48.2135 4.80947 48.2596 4.78639 48.2984 4.75492V4.75597Z" fill="#B07FFA"/>
<path d="M35.2908 20.3495L30.1517 35.8811C30.0982 35.8885 30.0363 35.8885 29.9828 35.8885C28.4439 35.8885 26.9207 35.5496 25.5287 34.9118L35.2908 20.3495Z" fill="#FF9900"/>
<path d="M66.1924 3.18652L54.0071 26.142H53.9997C49.6149 28.6502 44.2607 31.3881 38.6066 33.5501L48.2994 4.75584C50.046 3.64808 51.4454 2.69453 52.3381 2.03995C56.6537 -1.10603 62.5617 -0.521729 66.1924 3.18652Z" fill="#61B9EE"/>
<path d="M64.8686 19.2259C64.5382 19.4724 60.2603 22.5649 54.0061 26.142L66.1914 3.18652C66.5449 3.54843 66.8837 3.94076 67.1911 4.36351C70.6528 9.11028 69.607 15.7641 64.8675 19.2259H64.8686Z" fill="#4093CF"/>
<path d="M16.5585 9.00232L1.74231 31.0882C-1.35017 26.3802 -0.235076 20.018 4.36588 16.6643C4.72779 16.4031 9.5889 12.8868 16.5585 9.00232Z" fill="#0FC45E"/>
<path d="M46.8141 3.16346L35.2908 20.3494L41.9069 0.340576C43.7458 0.817876 45.4536 1.77877 46.8152 3.16346H46.8141Z" fill="#F7FF00"/>
<path d="M29.985 35.8905C26.4488 35.8905 23.0615 34.1208 21.0663 31.0462C19.2557 32.1938 17.8154 33.1788 16.8996 33.847C12.155 37.3077 5.50424 36.2671 2.04356 31.5235C-1.41712 26.7798 -0.376506 20.1281 4.36712 16.6674C5.01226 16.1964 20.3435 5.09261 36.2612 0.429764C40.7069 -0.873106 45.4851 0.853564 48.072 4.69818L48.114 4.76113C48.1328 4.78945 48.1517 4.81672 48.1696 4.84504C49.9791 3.69848 51.4194 2.71241 52.3352 2.04419C57.0798 -1.41649 63.7306 -0.375875 67.1912 4.36775C70.6519 9.11137 69.6113 15.7631 64.8677 19.2238C64.2225 19.6948 48.8913 30.7986 32.9736 35.4614C31.9844 35.751 30.9784 35.8915 29.985 35.8915V35.8905Z" fill="url(#paint0_linear_1815_5339)"/>
<defs>
<linearGradient id="paint0_linear_1815_5339" x1="34.6174" y1="-0.910871" x2="34.6174" y2="37.7493" gradientUnits="userSpaceOnUse">
<stop stop-color="white" stop-opacity="0.5"/>
<stop offset="0.5" stop-color="white" stop-opacity="0.05"/>
<stop offset="1" stop-opacity="0.05"/>
</linearGradient>
</defs>
</svg>
